<?xml version="1.0" encoding="UTF-8"?>
<svg width="25px" height="20px" viewBox="0 0 25 20" version="1.1" xmlns="http://www.w3.org/2000/svg" xmlns:xlink="http://www.w3.org/1999/xlink">
    <!-- Generator: Sketch 59.1 (86144) - https://sketch.com -->
    <desc>Created with Sketch.</desc>
    <g id="Web" stroke="none" stroke-width="1" fill="none" fill-rule="evenodd">
        <g id="icZeplin" fill-rule="nonzero">
            <path d="M4.0900011,13.2336319 L2.8344764,13.6922922 L2.76706464,17.4273795 L7.113267,15.8396599 C5.62257052,15.3389154 4.53397288,14.4579117 4.0900011,13.2336319" id="Path" fill="#FDBD39"></path>
            <path d="M4.74705052,9.28313624 L0.3907964,10.8745399 L2.8344764,13.6922922 L4.0900011,13.2336319 C3.64732816,12.0129228 3.9203211,10.6330308 4.74705052,9.28313624" id="Path" fill="#F69833"></path>
            <path d="M12.0778505,3.89360413 C6.53057524,5.92008976 2.95427875,10.1017647 4.0900011,13.2336319 L24.1784952,5.8950518 C23.0427729,2.76317048 17.6251399,1.86710436 12.0778505,3.89360413" id="Path" fill="#FECF33"></path>
            <path d="M16.1906317,15.2350796 C21.7379211,13.2085798 25.3209376,9.045453 24.1784952,5.8950518 L4.0900011,13.2336319 C5.23242936,16.3840472 10.6433564,17.2615652 16.1906317,15.2350796" id="Path" fill="#EE6723"></path>
            <path d="M24.1784952,5.8950518 L4.0900011,13.2336319 C4.48336112,14.3183681 5.98340344,14.8527799 8.08813288,14.8527799 C10.1400764,14.8527799 12.7667494,14.3452198 15.5051634,13.3448218 C21.052467,11.3183362 24.955347,8.03731836 24.1784952,5.8950518" id="Path" fill="#F69833"></path>
            <path d="M20.1803634,4.2758896 C18.1284058,4.2758896 15.501747,4.78346392 12.7633046,5.78384768 C7.21602936,7.81034744 3.31313522,11.0913512 4.0900011,13.2336319 L24.1784952,5.8950518 C23.7851352,4.8103014 22.2850929,4.2758896 20.1803634,4.2758896" id="Path" fill="#FDBD39"></path>
            <path d="M19.0709423,17.6251607 L19.0708011,17.6251607 C18.4797658,17.6251607 17.6078034,17.0912874 16.4791117,16.0383906 C15.1438082,14.7927144 13.6142176,12.9682043 12.1720434,10.9009807 C10.7299258,8.83384208 9.54491876,6.76718524 8.83532344,5.08168028 C8.06219876,3.24489919 7.95196816,2.11552826 8.50768112,1.724911 C8.62953052,1.6393541 8.77641052,1.59600886 8.94421288,1.59600886 C9.3962458,1.59600886 10.2770176,1.93255439 11.905714,3.53594568 L11.9413329,3.57098746 L11.9365188,3.62082244 C11.9253799,3.73600826 11.9151164,3.85222849 11.9059682,3.96629491 L11.8878129,4.19279824 L11.7280294,4.0318158 C9.97316344,2.26387129 9.20067404,2.07300487 8.94997288,2.07300487 C8.87848112,2.07300487 8.82154464,2.08754302 8.78073052,2.11623675 C8.5396858,2.28560767 8.52417052,3.11516103 9.27371876,4.8957166 C9.97065052,6.55118168 11.1384199,8.58658008 12.5619164,10.626952 C13.9854694,12.6675224 15.4916529,14.4650674 16.8030834,15.6884688 C18.2172623,17.0076717 18.8545329,17.1501202 19.0628952,17.1501202 C19.1348388,17.1501202 19.1932999,17.134661 19.2366552,17.1041677 C19.4909423,16.9255014 19.4912388,16.0368319 18.6553611,14.1203602 L18.6169894,14.0323802 L18.7009894,13.9863994 C18.7850034,13.9404044 18.8662505,13.8951179 18.9424434,13.851801 L19.043074,13.794612 L19.0894646,13.9008992 C19.6821517,15.2588706 20.2361705,16.984816 19.5097046,17.4954934 C19.3872199,17.5815321 19.2396199,17.6251607 19.0709423,17.6251607 L19.0709423,17.6251607 Z M19.0708011,17.4156894 L19.0709511,17.4156894 L19.0708511,17.520418 L19.0708011,17.4156894 Z" id="Shape" fill="#EE6723"></path>
            <path d="M16.3252999,15.1778196 L16.3168576,15.282194 C16.1766129,17.0175197 15.8073517,19.1037874 14.8445564,19.188225 C14.825187,19.1899536 14.8050976,19.1908464 14.7850082,19.1908464 C14.1309517,19.1908464 13.5121611,18.2537305 12.9458599,16.405486 C12.4100529,14.6569399 11.994274,12.3092404 11.7751117,9.79487644 C11.5559352,7.28103676 11.5592246,4.8965526 11.7843588,3.08071439 C12.0297517,1.10200915 12.4969329,0.068666568 13.1728434,0.009352032 C13.1928199,0.007509964 13.2135305,0.006560592 13.233987,0.006560592 C13.708467,0.006560592 14.423554,0.543820512 15.1556105,3.04628192 L14.6776152,3.13854111 C14.4331964,2.30228546 14.1668246,1.62213786 13.902387,1.15477727 C13.6577705,0.722486788 13.4199305,0.48442096 13.2326317,0.48442096 C13.2264764,0.48442096 13.2202788,0.484676016 13.2141658,0.485200296 C12.9211964,0.510932548 12.4945329,1.2215876 12.2566646,3.1397172 C12.0355399,4.9229792 12.0328717,7.27172724 12.249154,9.75330244 C12.4655634,12.235246 12.8745517,14.5478612 13.4007446,16.2650781 C13.6363964,17.0341692 13.8948764,17.66801 14.1482317,18.0981184 C14.3818646,18.4947436 14.6079588,18.7131844 14.784867,18.7131844 C14.7909517,18.7131844 14.7970082,18.712901 14.8030505,18.7123908 C15.0833705,18.6878205 15.6116388,17.9483017 15.8339776,15.3464254 L16.3252999,15.1778196" id="Path" fill="#EE6723"></path>
        </g>
    </g>
</svg>