<?xml version="1.0" encoding="UTF-8"?>
<svg width="40px" height="40px" viewBox="0 0 40 40" version="1.1" xmlns="http://www.w3.org/2000/svg" xmlns:xlink="http://www.w3.org/1999/xlink">
    <!-- Generator: Sketch 59.1 (86144) - https://sketch.com -->
    <desc>Created with Sketch.</desc>
    <g id="Web" stroke="none" stroke-width="1" fill="none" fill-rule="evenodd">
        <g id="github" fill="#000000" fill-rule="nonzero">
            <path d="M37.0839023,10.1468687 C35.3066246,7.02535563 32.895861,4.55404937 29.8509769,2.73239246 C26.8056395,0.91064263 23.481039,0 19.8748187,0 C16.2690516,0 12.9433634,0.91092137 9.89866057,2.73239246 C6.85350454,4.55395646 4.44283154,7.02535563 2.6655539,10.1468687 C0.88854818,13.2682889 0,16.6769039 0,20.3726208 C0,24.8120152 1.26352766,28.8040324 3.79121745,32.3496944 C6.31863533,35.8956352 9.58368506,38.3492879 13.5860947,39.7109314 C14.0519866,39.7995707 14.3968734,39.7372259 14.6211179,39.5254766 C14.8454529,39.3134486 14.9574845,39.0479026 14.9574845,38.7299535 C14.9574845,38.6769 14.9530431,38.1996047 14.9444323,37.2975101 C14.9355495,36.3954155 14.9313801,35.6084404 14.9313801,34.9369564 L14.3361443,35.0425059 C13.9566328,35.1137703 13.4778701,35.1439671 12.899856,35.1354191 C12.3221139,35.1271498 11.7223461,35.0650838 11.1013685,34.9496855 C10.480119,34.8353093 9.90228619,34.5700421 9.36741699,34.1544411 C8.8328197,33.7388402 8.4533082,33.1948332 8.22897313,32.5232564 L7.97019469,31.9128164 C7.79770594,31.5064139 7.5261472,31.0549485 7.1551559,30.5600926 C6.7841646,30.0647721 6.40900384,29.7289837 6.02949235,29.5521698 L5.84830212,29.419211 C5.72756906,29.3308505 5.61553748,29.224279 5.51193546,29.1006115 C5.40842409,28.976944 5.33092652,28.8531835 5.27917083,28.7292373 C5.2273245,28.6051981 5.27028807,28.5034581 5.40851473,28.4236456 C5.54674139,28.3438332 5.79654643,28.3050883 6.15901753,28.3050883 L6.67639313,28.3843433 C7.02146126,28.4552361 7.44828707,28.6669854 7.95741439,29.0208919 C8.46626979,29.3745197 8.88457539,29.8342544 9.21242184,30.3999102 C9.60942695,31.1251909 10.0877365,31.6778388 10.6487102,32.0581327 C11.2092306,32.4384266 11.7743737,32.6282483 12.3435957,32.6282483 C12.9128176,32.6282483 13.4044513,32.5840216 13.8186781,32.4960328 C14.2324517,32.4075794 14.6206647,32.2746205 14.9831357,32.0978996 C15.1384028,30.9125125 15.5611498,30.0018699 16.2510141,29.3653213 C15.2677467,29.2594002 14.3837306,29.0998682 13.5985125,28.8877473 C12.8137476,28.6753476 12.0027876,28.3306395 11.1661764,27.8526938 C10.329112,27.3753985 9.63471563,26.782705 9.08280602,26.0756352 C8.53080578,25.3681939 8.07778488,24.4394331 7.72437783,23.2901893 C7.3707895,22.1404809 7.19395001,20.8142374 7.19395001,19.3110871 C7.19395001,17.1708307 7.87556608,15.3495454 9.23852629,13.8462092 C8.60005507,12.2371378 8.66033096,10.4333202 9.41953524,8.43494234 C9.91987044,8.27559614 10.661853,8.39517548 11.6451205,8.79293704 C12.6285692,9.19088443 13.3486168,9.5317831 13.8059884,9.81442516 C14.2633601,10.0969743 14.6298193,10.3364117 14.9059101,10.5306004 C16.510699,10.0709586 18.1667904,9.84109126 19.8746374,9.84109126 C21.5824845,9.84109126 23.2389384,10.0709586 24.843818,10.5306004 L25.8271761,9.89423763 C26.4996374,9.46962414 27.2937383,9.08050351 28.2075751,8.72678282 C29.1219558,8.37324795 29.8211562,8.27587488 30.304451,8.43522108 C31.0805144,10.4336919 31.149673,12.2374165 30.5110205,13.846488 C31.8738901,15.3498241 32.5557781,17.171574 32.5557781,19.3113658 C32.5557781,20.8145161 32.3783041,22.1449408 32.0252596,23.3034759 C31.6717619,24.4621969 31.2148435,25.3900285 30.654323,26.0889218 C30.0931681,26.7877223 29.3943304,27.3757702 28.5577191,27.8529725 C27.7209267,28.3305466 26.9096948,28.6752547 26.1249299,28.8876543 C25.3398024,29.100054 24.4557863,29.2596789 23.4725188,29.3657859 C24.3693153,30.161309 24.8178042,31.4170314 24.8178042,33.1323955 L24.8178042,38.7292102 C24.8178042,39.0471593 24.9256663,39.3126124 25.1415718,39.5247333 C25.3572054,39.7364826 25.6977415,39.7988273 26.1636333,39.7100952 C30.1665869,38.3486376 33.4316366,35.8948919 35.9589638,32.3489511 C38.4860191,28.8032891 39.75,24.8112719 39.75,20.3718775 C39.7490936,16.6766252 38.8600922,13.2682889 37.0839023,10.1468687 Z" id="Path"></path>
        </g>
    </g>
</svg>