<?xml version="1.0" encoding="UTF-8"?>
<svg width="46px" height="36px" viewBox="0 0 46 36" version="1.1" xmlns="http://www.w3.org/2000/svg" xmlns:xlink="http://www.w3.org/1999/xlink">
    <!-- Generator: Sketch 59.1 (86144) - https://sketch.com -->
    <desc>Created with Sketch.</desc>
    <g id="Web" stroke="none" stroke-width="1" fill="none" fill-rule="evenodd">
        <g id="icZeplin" fill-rule="nonzero">
            <path d="M7.66875207,24.8130598 L5.31464325,25.6730479 L5.1882462,32.6763365 L13.3373756,29.6993623 C10.5423197,28.7604664 8.50119915,27.1085845 7.66875207,24.8130598" id="Path" fill="#FDBD39"></path>
            <path d="M8.90071973,17.4058805 L0.73274325,20.3897623 L5.31464325,25.673048 L7.66875207,24.8130598 C6.83874031,22.5242303 7.35060207,19.9369328 8.90071973,17.4058805" id="Path" fill="#F69833"></path>
            <path d="M22.6459697,7.30050775 C12.2448286,11.1001683 5.53927266,18.9408089 7.66875207,24.8130598 L45.3346786,11.0532221 C43.2051991,5.18094465 33.0471374,3.50082067 22.6459697,7.30050775" id="Path" fill="#FECF33"></path>
            <path d="M30.3574344,28.5657742 C40.7586021,24.7660871 47.4767579,16.9602244 45.3346786,11.0532221 L7.66875207,24.8130598 C9.81080505,30.7200886 19.9562933,32.3654347 30.3574344,28.5657742" id="Path" fill="#EE6723"></path>
            <path d="M45.3346786,11.0532221 L7.66875207,24.8130598 C8.4063021,26.8469402 11.2188815,27.8489623 15.1652492,27.8489623 C19.0126432,27.8489623 23.937655,26.897287 29.0721814,25.0215409 C39.4733756,21.2218804 46.7912756,15.0699719 45.3346786,11.0532221" id="Path" fill="#F69833"></path>
            <path d="M37.8381815,8.017293 C33.9907609,8.017293 29.0657756,8.96899485 23.9311962,10.8447144 C13.5300551,14.6444015 6.21212855,20.7962834 7.66875207,24.8130598 L45.3346786,11.0532221 C44.5971286,9.01931513 41.7845492,8.017293 37.8381815,8.017293" id="Path" fill="#FDBD39"></path>
            <path d="M35.7580168,33.0471763 L35.7577521,33.0471763 C34.6495609,33.0471763 33.0146315,32.0461639 30.8983344,30.0719823 C28.3946403,27.7363395 25.5266579,24.315383 22.8225815,20.4393388 C20.1186109,16.5634539 17.8967227,12.6884723 16.5662315,9.52815052 C15.1166227,6.08418598 14.9099403,3.96661549 15.9519021,3.23420812 C16.1803697,3.07378893 16.4557697,2.9925166 16.7703992,2.9925166 C17.6179609,2.9925166 19.2694079,3.62353948 22.3232138,6.62989816 L22.3899992,6.69560148 L22.3809727,6.78904207 C22.3600874,7.0050155 22.3408433,7.22292842 22.3236903,7.43680295 L22.2896492,7.8614967 L21.9900551,7.55965462 C18.6996814,4.24475867 17.2512638,3.88688413 16.7811992,3.88688413 C16.6471521,3.88688413 16.5403962,3.91414317 16.4638697,3.96794391 C16.0119109,4.28551438 15.9828197,5.84092693 17.3882227,9.17946863 C18.6949697,12.2834657 20.8845374,16.0998377 23.5535933,19.9255351 C26.2227551,23.7516044 29.0468491,27.1220015 31.5057815,29.415879 C34.1573668,31.8893845 35.3522492,32.1564753 35.7429286,32.1564753 C35.8778227,32.1564753 35.9874374,32.1274893 36.0687286,32.0703144 C36.5455168,31.7353151 36.5460727,30.0690598 34.9788021,26.4756753 L34.906855,26.310713 L35.064355,26.2244989 C35.2218814,26.1382583 35.3742197,26.0533461 35.5170814,25.9721269 L35.7057638,25.8648974 L35.7927462,26.064186 C36.9040344,28.6103823 37.9428197,31.8465299 36.5806962,32.8040502 C36.3510373,32.9653727 36.0742873,33.0471763 35.7580168,33.0471763 L35.7580168,33.0471763 Z M35.7577521,32.6544177 L35.7580333,32.6544177 L35.7578458,32.8507838 L35.7577521,32.6544177 Z" id="Shape" fill="#EE6723"></path>
            <path d="M30.6099373,28.4584118 L30.5941079,28.6541137 C30.3311491,31.9078495 29.6387844,35.8196015 27.8335432,35.9779218 C27.7972256,35.9811631 27.7595579,35.9828369 27.7218903,35.9828369 C26.4955344,35.9828369 25.3353021,34.2257447 24.2734873,30.7602863 C23.2688491,27.4817624 22.4892638,23.0798258 22.0783344,18.3653933 C21.6673786,13.6519439 21.6735462,9.18103613 22.0956727,5.77633949 C22.5557844,2.06626716 23.4317491,0.128749815 24.6990814,0.01753506 C24.7365373,0.0140811825 24.7753697,0.01230111 24.8137256,0.01230111 C25.7033756,0.01230111 27.0441638,1.01966346 28.4167697,5.7117786 L27.5205286,5.88476458 C27.0622432,4.31678524 26.5627962,3.04150849 26.0669756,2.16520738 C25.6083197,1.35466273 25.1623697,0.9082893 24.8111844,0.9082893 C24.7996432,0.9082893 24.7880227,0.90876753 24.7765609,0.909750555 C24.2272433,0.957998528 23.4272492,2.29047675 22.9812462,5.88696974 C22.5666374,9.23058599 22.5616344,13.6344886 22.9671638,18.2874421 C23.3729314,22.9410863 24.1397844,27.2772398 25.1263962,30.4970214 C25.5682432,31.9390672 26.0528932,33.1275188 26.5279344,33.9339719 C26.9659962,34.6776442 27.3899227,35.0872207 27.7216256,35.0872207 C27.7330344,35.0872207 27.7443903,35.0866893 27.7557197,35.0857328 C28.2813197,35.0396635 29.2718227,33.6530656 29.6887079,28.7745476 L30.6099373,28.4584118" id="Path" fill="#EE6723"></path>
        </g>
    </g>
</svg>