<?xml version="1.0" encoding="UTF-8"?>
<svg width="22px" height="22px" viewBox="0 0 22 22" version="1.1" xmlns="http://www.w3.org/2000/svg" xmlns:xlink="http://www.w3.org/1999/xlink">
    <!-- Generator: Sketch 59.1 (86144) - https://sketch.com -->
    <desc>Created with Sketch.</desc>
    <g id="Web" stroke="none" stroke-width="1" fill="none" fill-rule="evenodd">
        <g id="github" fill="#000000" fill-rule="nonzero">
            <path d="M19.7780812,5.41166332 C18.8301998,3.74685634 17.5444592,2.42882633 15.920521,1.45727598 C14.2963411,0.485676069 12.5232208,0 10.5999033,0 C8.67682752,0 6.90312715,0.485824731 5.27928564,1.45727598 C3.65520242,2.42877678 2.36951015,3.74685634 1.42162875,5.41166332 C0.473892362,7.07642075 0,8.89434874 0,10.8653978 C0,13.2330748 0.673881417,15.3621506 2.02198264,17.2531704 C3.36993884,19.1443388 5.1112987,20.4529536 7.24591719,21.1791634 C7.49439283,21.2264377 7.67833249,21.1931871 7.79792952,21.0802542 C7.9175749,20.9671726 7.97732507,20.825548 7.97732507,20.6559752 C7.97732507,20.62768 7.97495633,20.3731225 7.97036388,19.8920054 C7.96562641,19.4108883 7.9634027,18.9911682 7.9634027,18.6330434 L7.64594364,18.6893365 C7.44353751,18.7273442 7.18819736,18.7434491 6.8799232,18.7388902 C6.57179406,18.7344799 6.25191793,18.701378 5.92072987,18.6398323 C5.58939678,18.5788316 5.2812193,18.4373558 4.99595573,18.2157019 C4.71083718,17.9940481 4.50843104,17.7039111 4.38878567,17.3457367 L4.2507705,17.0201687 C4.1587765,16.8034208 4.01394517,16.5626392 3.81608315,16.2987161 C3.61822112,16.0345451 3.41813538,15.855458 3.21572925,15.7611572 L3.11909446,15.6902458 C3.0547035,15.6431203 2.99495332,15.5862821 2.93969891,15.5203261 C2.88449285,15.4543701 2.84316081,15.3883645 2.81555778,15.3222599 C2.7879064,15.2561057 2.8108203,15.2018443 2.88454119,15.1592777 C2.95826208,15.116711 3.09149143,15.0960471 3.28480935,15.0960471 L3.560743,15.1383164 C3.74477934,15.1761259 3.97241977,15.2890589 4.24395434,15.477809 C4.51534389,15.6664105 4.73844021,15.9116023 4.91329165,16.2132854 C5.12502771,16.6001018 5.38012614,16.8948474 5.67931209,17.0976708 C5.97825633,17.3004942 6.27966599,17.4017324 6.58325102,17.4017324 C6.88683604,17.4017324 7.14904069,17.3781449 7.36996165,17.3312175 C7.59064089,17.2840423 7.79768781,17.213131 7.99100573,17.1188798 C8.07381483,16.4866733 8.29927989,16.0009973 8.66720754,15.6615047 C8.14279825,15.6050134 7.67132296,15.5199297 7.25253998,15.4067985 C6.83399871,15.2935187 6.40148673,15.1096744 5.95529409,14.85477 C5.50885973,14.6002125 5.138515,14.2841093 4.84416321,13.9070055 C4.54976308,13.5297034 4.30815194,13.0343643 4.11966818,12.4214343 C3.93108773,11.8082565 3.83677334,11.1009266 3.83677334,10.2992464 C3.83677334,9.15777635 4.20030191,8.18642421 4.92721402,7.38464492 C4.58669604,6.5264735 4.61884318,5.56443746 5.02375213,4.49863592 C5.29059757,4.41365128 5.68632162,4.47742692 6.21073092,4.68956642 C6.7352369,4.90180503 7.11926229,5.08361765 7.36319383,5.23436009 C7.60712536,5.38505297 7.80257031,5.51275292 7.94981872,5.61632021 C8.80570613,5.37117793 9.68895486,5.24858201 10.5998066,5.24858201 C11.5106584,5.24858201 12.3941005,5.37117793 13.2500363,5.61632021 L13.7744939,5.27692674 C14.13314,5.05046621 14.5566604,4.84293521 15.0440401,4.65428417 C15.5317098,4.46573224 15.9046166,4.41379994 16.1623738,4.49878458 C16.5762743,5.56463567 16.6131589,6.52662216 16.2725443,7.38479359 C16.999408,8.18657287 17.3630816,9.15817278 17.3630816,10.2993951 C17.3630816,11.1010753 17.2684289,11.8106351 17.0801385,12.4285205 C16.8916064,13.046505 16.6479165,13.5413485 16.3489723,13.9140916 C16.0496897,14.2867852 15.6769762,14.6004107 15.2307835,14.8549187 C14.7844942,15.1096248 14.3518372,15.2934692 13.9332959,15.406749 C13.5145613,15.5200288 13.043086,15.6051621 12.5186767,15.6617525 C12.9969682,16.0860315 13.2361622,16.7557501 13.2361622,17.670611 L13.2361622,20.6555788 C13.2361622,20.8251516 13.2936887,20.9667266 13.4088383,21.0798578 C13.5238429,21.1927907 13.7054621,21.2260413 13.9539378,21.1787174 C16.0888463,20.4526067 17.8302062,19.1439423 19.178114,17.2527739 C20.5258769,15.3617542 21.2,13.2326784 21.2,10.8650013 C21.1995166,8.89420008 20.7253825,7.07642075 19.7780812,5.41166332 Z" id="Path"></path>
        </g>
    </g>
</svg>